<svg width="70" height="68" viewBox="0 0 70 68" fill="none" xmlns="http://www.w3.org/2000/svg">
<mask id="path-1-inside-1_1_436" fill="white">
<path d="M0 0H70V68H0V0Z"/>
</mask>
<path d="M0 68H-2.84138V68.3552H0V68ZM-2.84138 0V0.708333H2.84138V0H-2.84138ZM-2.84138 2.125V3.54167H2.84138V2.125H-2.84138ZM-2.84138 4.95833V6.375H2.84138V4.95833H-2.84138ZM-2.84138 7.79167V9.20833H2.84138V7.79167H-2.84138ZM-2.84138 10.625V12.0417H2.84138V10.625H-2.84138ZM-2.84138 13.4583V14.875H2.84138V13.4583H-2.84138ZM-2.84138 16.2917V17.7083H2.84138V16.2917H-2.84138ZM-2.84138 19.125V20.5417H2.84138V19.125H-2.84138ZM-2.84138 21.9583V23.375H2.84138V21.9583H-2.84138ZM-2.84138 24.7917V26.2083H2.84138V24.7917H-2.84138ZM-2.84138 27.625V29.0417H2.84138V27.625H-2.84138ZM-2.84138 30.4583V31.875H2.84138V30.4583H-2.84138ZM-2.84138 33.2917V34.7083H2.84138V33.2917H-2.84138ZM-2.84138 36.125V37.5417H2.84138V36.125H-2.84138ZM-2.84138 38.9583V40.375H2.84138V38.9583H-2.84138ZM-2.84138 41.7917V43.2083H2.84138V41.7917H-2.84138ZM-2.84138 44.625V46.0417H2.84138V44.625H-2.84138ZM-2.84138 47.4583V48.875H2.84138V47.4583H-2.84138ZM-2.84138 50.2917V51.7083H2.84138V50.2917H-2.84138ZM-2.84138 53.125V54.5417H2.84138V53.125H-2.84138ZM-2.84138 55.9583V57.375H2.84138V55.9583H-2.84138ZM-2.84138 58.7917V60.2084H2.84138V58.7917H-2.84138ZM-2.84138 61.625V63.0417H2.84138V61.625H-2.84138ZM-2.84138 64.4584V65.875H2.84138V64.4584H-2.84138ZM-2.84138 67.2917V68H2.84138V67.2917H-2.84138ZM0 68.3552H0.7V67.6448H0V68.3552ZM2.1 68.3552H3.5V67.6448H2.1V68.3552ZM4.9 68.3552H6.3V67.6448H4.9V68.3552ZM7.7 68.3552H9.1V67.6448H7.7V68.3552ZM10.5 68.3552H11.9V67.6448H10.5V68.3552ZM13.3 68.3552H14.7V67.6448H13.3V68.3552ZM16.1 68.3552H17.5V67.6448H16.1V68.3552ZM18.9 68.3552H20.3V67.6448H18.9V68.3552ZM21.7 68.3552H23.1V67.6448H21.7V68.3552ZM24.5 68.3552H25.9V67.6448H24.5V68.3552ZM27.3 68.3552H28.7V67.6448H27.3V68.3552ZM30.1 68.3552H31.5V67.6448H30.1V68.3552ZM32.9 68.3552H34.3V67.6448H32.9V68.3552ZM35.7 68.3552H37.1V67.6448H35.7V68.3552ZM38.5 68.3552H39.9V67.6448H38.5V68.3552ZM41.3 68.3552H42.7V67.6448H41.3V68.3552ZM44.1 68.3552H45.5V67.6448H44.1V68.3552ZM46.9 68.3552H48.3V67.6448H46.9V68.3552ZM49.7 68.3552H51.1V67.6448H49.7V68.3552ZM52.5 68.3552H53.9V67.6448H52.5V68.3552ZM55.3 68.3552H56.7V67.6448H55.3V68.3552ZM58.1 68.3552H59.5V67.6448H58.1V68.3552ZM60.9 68.3552H62.3V67.6448H60.9V68.3552ZM63.7 68.3552H65.1V67.6448H63.7V68.3552ZM66.5 68.3552H67.9V67.6448H66.5V68.3552ZM69.3 68.3552H70V67.6448H69.3V68.3552ZM0 68H-5.68276V68.7103H0V68ZM-5.68276 0V0.708333H5.68276V0H-5.68276ZM-5.68276 2.125V3.54167H5.68276V2.125H-5.68276ZM-5.68276 4.95833V6.375H5.68276V4.95833H-5.68276ZM-5.68276 7.79167V9.20833H5.68276V7.79167H-5.68276ZM-5.68276 10.625V12.0417H5.68276V10.625H-5.68276ZM-5.68276 13.4583V14.875H5.68276V13.4583H-5.68276ZM-5.68276 16.2917V17.7083H5.68276V16.2917H-5.68276ZM-5.68276 19.125V20.5417H5.68276V19.125H-5.68276ZM-5.68276 21.9583V23.375H5.68276V21.9583H-5.68276ZM-5.68276 24.7917V26.2083H5.68276V24.7917H-5.68276ZM-5.68276 27.625V29.0417H5.68276V27.625H-5.68276ZM-5.68276 30.4583V31.875H5.68276V30.4583H-5.68276ZM-5.68276 33.2917V34.7083H5.68276V33.2917H-5.68276ZM-5.68276 36.125V37.5417H5.68276V36.125H-5.68276ZM-5.68276 38.9583V40.375H5.68276V38.9583H-5.68276ZM-5.68276 41.7917V43.2083H5.68276V41.7917H-5.68276ZM-5.68276 44.625V46.0417H5.68276V44.625H-5.68276ZM-5.68276 47.4583V48.875H5.68276V47.4583H-5.68276ZM-5.68276 50.2917V51.7083H5.68276V50.2917H-5.68276ZM-5.68276 53.125V54.5417H5.68276V53.125H-5.68276ZM-5.68276 55.9583V57.375H5.68276V55.9583H-5.68276ZM-5.68276 58.7917V60.2084H5.68276V58.7917H-5.68276ZM-5.68276 61.625V63.0417H5.68276V61.625H-5.68276ZM-5.68276 64.4584V65.875H5.68276V64.4584H-5.68276ZM-5.68276 67.2917V68H5.68276V67.2917H-5.68276ZM0 68.7103H0.7V67.2897H0V68.7103ZM2.1 68.7103H3.5V67.2897H2.1V68.7103ZM4.9 68.7103H6.3V67.2897H4.9V68.7103ZM7.7 68.7103H9.1V67.2897H7.7V68.7103ZM10.5 68.7103H11.9V67.2897H10.5V68.7103ZM13.3 68.7103H14.7V67.2897H13.3V68.7103ZM16.1 68.7103H17.5V67.2897H16.1V68.7103ZM18.9 68.7103H20.3V67.2897H18.9V68.7103ZM21.7 68.7103H23.1V67.2897H21.7V68.7103ZM24.5 68.7103H25.9V67.2897H24.5V68.7103ZM27.3 68.7103H28.7V67.2897H27.3V68.7103ZM30.1 68.7103H31.5V67.2897H30.1V68.7103ZM32.9 68.7103H34.3V67.2897H32.9V68.7103ZM35.7 68.7103H37.1V67.2897H35.7V68.7103ZM38.5 68.7103H39.9V67.2897H38.5V68.7103ZM41.3 68.7103H42.7V67.2897H41.3V68.7103ZM44.1 68.7103H45.5V67.2897H44.1V68.7103ZM46.9 68.7103H48.3V67.2897H46.9V68.7103ZM49.7 68.7103H51.1V67.2897H49.7V68.7103ZM52.5 68.7103H53.9V67.2897H52.5V68.7103ZM55.3 68.7103H56.7V67.2897H55.3V68.7103ZM58.1 68.7103H59.5V67.2897H58.1V68.7103ZM60.9 68.7103H62.3V67.2897H60.9V68.7103ZM63.7 68.7103H65.1V67.2897H63.7V68.7103ZM66.5 68.7103H67.9V67.2897H66.5V68.7103ZM69.3 68.7103H70V67.2897H69.3V68.7103Z" fill="#EC8C32" mask="url(#path-1-inside-1_1_436)"/>
</svg>
